<svg width="118" height="164" viewBox="0 0 118 164" fill="none" xmlns="http://www.w3.org/2000/svg">
<g filter="url(#filter0_d_7:79)">
<rect width="110" height="156" rx="2" fill="#F7F5EE"/>
<path d="M4.74268 21V14.6016H6.83447C7.52881 14.6016 8.05029 14.7451 8.39893 15.0322C8.75049 15.3193 8.92627 15.7441 8.92627 16.3066C8.92627 16.6055 8.84131 16.8706 8.67139 17.1021C8.50146 17.3306 8.27002 17.5078 7.97705 17.6338C8.32275 17.7305 8.59521 17.915 8.79443 18.1875C8.99658 18.457 9.09766 18.7793 9.09766 19.1543C9.09766 19.7285 8.91162 20.1797 8.53955 20.5078C8.16748 20.8359 7.6416 21 6.96191 21H4.74268ZM5.58643 18.0073V20.3101H6.97949C7.37207 20.3101 7.68115 20.209 7.90674 20.0068C8.13525 19.8018 8.24951 19.5205 8.24951 19.1631C8.24951 18.3926 7.83057 18.0073 6.99268 18.0073H5.58643ZM5.58643 17.3306H6.86084C7.22998 17.3306 7.52441 17.2383 7.74414 17.0537C7.9668 16.8691 8.07812 16.6187 8.07812 16.3022C8.07812 15.9507 7.97559 15.6958 7.77051 15.5376C7.56543 15.3765 7.25342 15.2959 6.83447 15.2959H5.58643V17.3306ZM10.0073 18.5786C10.0073 18.1128 10.0981 17.6938 10.2798 17.3218C10.4644 16.9497 10.7192 16.6626 11.0444 16.4604C11.3726 16.2583 11.7461 16.1572 12.165 16.1572C12.8125 16.1572 13.3354 16.3813 13.7339 16.8296C14.1353 17.2778 14.3359 17.874 14.3359 18.6182V18.6753C14.3359 19.1382 14.2466 19.5542 14.0679 19.9233C13.8921 20.2896 13.6387 20.5752 13.3076 20.7803C12.9795 20.9854 12.6016 21.0879 12.1738 21.0879C11.5293 21.0879 11.0063 20.8638 10.605 20.4155C10.2065 19.9673 10.0073 19.374 10.0073 18.6357V18.5786ZM10.8247 18.6753C10.8247 19.2026 10.9463 19.626 11.1895 19.9453C11.4355 20.2646 11.7637 20.4243 12.1738 20.4243C12.5869 20.4243 12.915 20.2632 13.1582 19.9409C13.4014 19.6157 13.5229 19.1616 13.5229 18.5786C13.5229 18.0571 13.3984 17.6353 13.1494 17.313C12.9033 16.9878 12.5752 16.8252 12.165 16.8252C11.7637 16.8252 11.4399 16.9849 11.1938 17.3042C10.9478 17.6235 10.8247 18.0806 10.8247 18.6753ZM18.4316 16.2451H19.2446V21H18.4316V17.5327L16.2388 21H15.4258V16.2451H16.2388V19.7168L18.4316 16.2451ZM18.6514 14.5137C18.6514 14.8682 18.5298 15.1538 18.2866 15.3706C18.0464 15.5845 17.73 15.6914 17.3374 15.6914C16.9448 15.6914 16.627 15.583 16.3838 15.3662C16.1406 15.1494 16.019 14.8652 16.019 14.5137H16.6826C16.6826 14.7188 16.7383 14.8799 16.8496 14.9971C16.9609 15.1113 17.1235 15.1685 17.3374 15.1685C17.5425 15.1685 17.7021 15.1113 17.8164 14.9971C17.9336 14.8828 17.9922 14.7217 17.9922 14.5137H18.6514ZM24.4346 21H23.6216V18.9697H21.4375V21H20.6201V16.2451H21.4375V18.3062H23.6216V16.2451H24.4346V21ZM28.6797 21C28.6328 20.9062 28.5947 20.7393 28.5654 20.499C28.1875 20.8916 27.7363 21.0879 27.2119 21.0879C26.7432 21.0879 26.3579 20.9561 26.0562 20.6924C25.7573 20.4258 25.6079 20.0889 25.6079 19.6816C25.6079 19.1865 25.7954 18.8027 26.1704 18.5303C26.5483 18.2549 27.0786 18.1172 27.7612 18.1172H28.5522V17.7437C28.5522 17.4595 28.4673 17.2339 28.2974 17.0669C28.1274 16.897 27.877 16.812 27.5459 16.812C27.2559 16.812 27.0127 16.8853 26.8164 17.0317C26.6201 17.1782 26.522 17.3555 26.522 17.5635H25.7046C25.7046 17.3262 25.7881 17.0977 25.9551 16.8779C26.125 16.6553 26.3535 16.4795 26.6406 16.3506C26.9307 16.2217 27.2485 16.1572 27.5942 16.1572C28.1421 16.1572 28.5713 16.2949 28.8818 16.5703C29.1924 16.8428 29.3535 17.2192 29.3652 17.6997V19.8882C29.3652 20.3247 29.4209 20.6719 29.5322 20.9297V21H28.6797ZM27.3306 20.3804C27.5854 20.3804 27.8271 20.3145 28.0557 20.1826C28.2842 20.0508 28.4497 19.8794 28.5522 19.6685V18.6929H27.915C26.9189 18.6929 26.4209 18.9844 26.4209 19.5674C26.4209 19.8223 26.5059 20.0215 26.6758 20.165C26.8457 20.3086 27.064 20.3804 27.3306 20.3804ZM35.9482 16.2451H36.7612V21H35.9482V17.5327L33.7554 21H32.9424V16.2451H33.7554V19.7168L35.9482 16.2451ZM41.5161 14.6016L43.6079 19.8223L45.6997 14.6016H46.7939V21H45.9502V18.5083L46.0293 15.8188L43.9287 21H43.2827L41.1865 15.832L41.27 18.5083V21H40.4263V14.6016H41.5161ZM51.2324 16.2451H52.0454V21H51.2324V17.5327L49.0396 21H48.2266V16.2451H49.0396V19.7168L51.2324 16.2451ZM57.3672 18.6753C57.3672 19.3989 57.2017 19.9819 56.8706 20.4243C56.5396 20.8667 56.0913 21.0879 55.5259 21.0879C54.9487 21.0879 54.4946 20.9048 54.1636 20.5386V22.8281H53.3506V16.2451H54.0933L54.1328 16.7725C54.4639 16.3623 54.9238 16.1572 55.5127 16.1572C56.084 16.1572 56.5352 16.3726 56.8662 16.8032C57.2002 17.2339 57.3672 17.833 57.3672 18.6006V18.6753ZM56.5542 18.583C56.5542 18.0469 56.4399 17.6235 56.2114 17.313C55.9829 17.0024 55.6694 16.8472 55.271 16.8472C54.7788 16.8472 54.4097 17.0654 54.1636 17.502V19.7739C54.4067 20.2075 54.7788 20.4243 55.2798 20.4243C55.6694 20.4243 55.9785 20.2705 56.207 19.9629C56.4385 19.6523 56.5542 19.1924 56.5542 18.583Z" fill="#3F3F3F"/>
<path d="M8.96094 33.3125V39H8.21094V33.9297H6.17188L6.07031 36.1836C6.03125 36.9388 5.95312 37.5065 5.83594 37.8867C5.72135 38.2669 5.55208 38.5469 5.32812 38.7266C5.10417 38.9036 4.80469 38.9948 4.42969 39H4.18359V38.3867L4.33984 38.3789C4.58203 38.3607 4.76823 38.2826 4.89844 38.1445C5.02865 38.0039 5.1276 37.7812 5.19531 37.4766C5.26302 37.1719 5.3112 36.7031 5.33984 36.0703L5.45703 33.3125H8.96094ZM10.2266 38.6211C10.2266 38.4961 10.263 38.3919 10.3359 38.3086C10.4115 38.2253 10.5234 38.1836 10.6719 38.1836C10.8203 38.1836 10.9323 38.2253 11.0078 38.3086C11.0859 38.3919 11.125 38.4961 11.125 38.6211C11.125 38.7409 11.0859 38.8411 11.0078 38.9219C10.9323 39.0026 10.8203 39.043 10.6719 39.043C10.5234 39.043 10.4115 39.0026 10.3359 38.9219C10.263 38.8411 10.2266 38.7409 10.2266 38.6211ZM18.7891 39H18.0352V36.3711H15.168V39H14.418V33.3125H15.168V35.7578H18.0352V33.3125H18.7891V39ZM20.0234 38.6211C20.0234 38.4961 20.0599 38.3919 20.1328 38.3086C20.2083 38.2253 20.3203 38.1836 20.4688 38.1836C20.6172 38.1836 20.7292 38.2253 20.8047 38.3086C20.8828 38.3919 20.9219 38.4961 20.9219 38.6211C20.9219 38.7409 20.8828 38.8411 20.8047 38.9219C20.7292 39.0026 20.6172 39.043 20.4688 39.043C20.3203 39.043 20.2083 39.0026 20.1328 38.9219C20.0599 38.8411 20.0234 38.7409 20.0234 38.6211ZM27.9883 33.9297H26.1602V39H25.4141V33.9297H23.5898V33.3125H27.9883V33.9297ZM28.1367 36.8477C28.1367 36.4336 28.2174 36.0612 28.3789 35.7305C28.543 35.3997 28.7695 35.1445 29.0586 34.9648C29.3503 34.7852 29.6823 34.6953 30.0547 34.6953C30.6302 34.6953 31.0951 34.8945 31.4492 35.293C31.806 35.6914 31.9844 36.2214 31.9844 36.8828V36.9336C31.9844 37.3451 31.9049 37.7148 31.7461 38.043C31.5898 38.3685 31.3646 38.6224 31.0703 38.8047C30.7786 38.987 30.4427 39.0781 30.0625 39.0781C29.4896 39.0781 29.0247 38.8789 28.668 38.4805C28.3138 38.082 28.1367 37.5547 28.1367 36.8984V36.8477ZM28.8633 36.9336C28.8633 37.4023 28.9714 37.7786 29.1875 38.0625C29.4062 38.3464 29.6979 38.4883 30.0625 38.4883C30.4297 38.4883 30.7214 38.3451 30.9375 38.0586C31.1536 37.7695 31.2617 37.3659 31.2617 36.8477C31.2617 36.3841 31.151 36.0091 30.9297 35.7227C30.7109 35.4336 30.4193 35.2891 30.0547 35.2891C29.6979 35.2891 29.4102 35.431 29.1914 35.7148C28.9727 35.9987 28.8633 36.4049 28.8633 36.9336ZM36.293 34.7734V39H35.5664V35.3711H34.1289L34.043 36.9531C33.9961 37.6797 33.8737 38.1992 33.6758 38.5117C33.4805 38.8242 33.1693 38.987 32.7422 39H32.4531V38.3633L32.6602 38.3477C32.8945 38.3216 33.0625 38.1862 33.1641 37.9414C33.2656 37.6966 33.3307 37.2435 33.3594 36.582L33.4375 34.7734H36.293ZM39.1484 38.4883C39.4062 38.4883 39.6315 38.4102 39.8242 38.2539C40.0169 38.0977 40.1237 37.9023 40.1445 37.668H40.8281C40.8151 37.9102 40.7318 38.1406 40.5781 38.3594C40.4245 38.5781 40.2188 38.7526 39.9609 38.8828C39.7057 39.013 39.4349 39.0781 39.1484 39.0781C38.5729 39.0781 38.1146 38.8867 37.7734 38.5039C37.4349 38.1185 37.2656 37.5924 37.2656 36.9258V36.8047C37.2656 36.3932 37.3411 36.0273 37.4922 35.707C37.6432 35.3867 37.8594 35.138 38.1406 34.9609C38.4245 34.7839 38.7591 34.6953 39.1445 34.6953C39.6185 34.6953 40.0117 34.8372 40.3242 35.1211C40.6393 35.4049 40.8073 35.7734 40.8281 36.2266H40.1445C40.1237 35.9531 40.0195 35.7292 39.832 35.5547C39.6471 35.3776 39.418 35.2891 39.1445 35.2891C38.7773 35.2891 38.4922 35.4219 38.2891 35.6875C38.0885 35.9505 37.9883 36.332 37.9883 36.832V36.9688C37.9883 37.4557 38.0885 37.8307 38.2891 38.0938C38.4896 38.3568 38.776 38.4883 39.1484 38.4883ZM44.7812 35.3594H43.3633V39H42.6406V35.3594H41.25V34.7734H44.7812V35.3594ZM45.1289 36.8477C45.1289 36.4336 45.2096 36.0612 45.3711 35.7305C45.5352 35.3997 45.7617 35.1445 46.0508 34.9648C46.3424 34.7852 46.6745 34.6953 47.0469 34.6953C47.6224 34.6953 48.0872 34.8945 48.4414 35.293C48.7982 35.6914 48.9766 36.2214 48.9766 36.8828V36.9336C48.9766 37.3451 48.8971 37.7148 48.7383 38.043C48.582 38.3685 48.3568 38.6224 48.0625 38.8047C47.7708 38.987 47.4349 39.0781 47.0547 39.0781C46.4818 39.0781 46.0169 38.8789 45.6602 38.4805C45.306 38.082 45.1289 37.5547 45.1289 36.8984V36.8477ZM45.8555 36.9336C45.8555 37.4023 45.9635 37.7786 46.1797 38.0625C46.3984 38.3464 46.6901 38.4883 47.0547 38.4883C47.4219 38.4883 47.7135 38.3451 47.9297 38.0586C48.1458 37.7695 48.2539 37.3659 48.2539 36.8477C48.2539 36.3841 48.1432 36.0091 47.9219 35.7227C47.7031 35.4336 47.4115 35.2891 47.0469 35.2891C46.6901 35.2891 46.4023 35.431 46.1836 35.7148C45.9648 35.9987 45.8555 36.4049 45.8555 36.9336ZM52.6172 34.7734H53.3398V39H52.6172V35.918L50.668 39H49.9453V34.7734H50.668V37.8594L52.6172 34.7734ZM52.8125 33.2344C52.8125 33.5495 52.7044 33.8034 52.4883 33.9961C52.2747 34.1862 51.9935 34.2812 51.6445 34.2812C51.2956 34.2812 51.013 34.1849 50.7969 33.9922C50.5807 33.7995 50.4727 33.5469 50.4727 33.2344H51.0625C51.0625 33.4167 51.112 33.5599 51.2109 33.6641C51.3099 33.7656 51.4544 33.8164 51.6445 33.8164C51.8268 33.8164 51.9688 33.7656 52.0703 33.6641C52.1745 33.5625 52.2266 33.4193 52.2266 33.2344H52.8125Z" fill="#6F6F6F"/>
</g>
<defs>
<filter id="filter0_d_7:79" x="0" y="0" width="118" height="164" filterUnits="userSpaceOnUse" color-interpolation-filters="sRGB">
<feFlood flood-opacity="0" result="BackgroundImageFix"/>
<feColorMatrix in="SourceAlpha" type="matrix" values="0 0 0 0 0 0 0 0 0 0 0 0 0 0 0 0 0 0 127 0" result="hardAlpha"/>
<feOffset dx="4" dy="4"/>
<feGaussianBlur stdDeviation="2"/>
<feComposite in2="hardAlpha" operator="out"/>
<feColorMatrix type="matrix" values="0 0 0 0 0 0 0 0 0 0 0 0 0 0 0 0 0 0 0.25 0"/>
<feBlend mode="normal" in2="BackgroundImageFix" result="effect1_dropShadow_7:79"/>
<feBlend mode="normal" in="SourceGraphic" in2="effect1_dropShadow_7:79" result="shape"/>
</filter>
</defs>
</svg>
