<svg width="54" height="59" viewBox="0 0 54 59" fill="none" xmlns="http://www.w3.org/2000/svg">
<path d="M2 55.9153V3.08467C2 2.5004 2.49875 2.04058 3.08109 2.08796L27.0811 4.04062C27.6002 4.08286 28 4.51648 28 5.03733V53.9627C28 54.4835 27.6002 54.9171 27.0811 54.9594L3.08109 56.912C2.49876 56.9594 2 56.4996 2 55.9153Z" stroke="white" stroke-width="3"/>
<path d="M52 55.9153V3.08467C52 2.5004 51.5012 2.04058 50.9189 2.08796L26.9189 4.04062C26.3998 4.08286 26 4.51648 26 5.03733V53.9627C26 54.4835 26.3998 54.9171 26.9189 54.9594L50.9189 56.912C51.5012 56.9594 52 56.4996 52 55.9153Z" stroke="white" stroke-width="3"/>
</svg>
